<svg
  xmlns="http://www.w3.org/2000/svg"
  xmlns:xlink="http://www.w3.org/1999/xlink"
  viewBox="-45 0 100 100"
  width="100"
  xml:space="preserve"
  >
  <path d="M16.7,66.5c2.6,0.4,5.3,0.1,7.8-1.2c4.9-2.4,7.4-7.6,6.8-12.7C29.4,54.9,25.4,60.6,16.7,66.5z" fill="#72064D"/>
  <path d="M24.4,54.6c0.3-0.2,0.5-0.3,0.8-0.5c2-1.3,3.8-2,5.5-3.5c0.2-0.7-0.4-1.8-0.6-2.3c-3.2-6.2-10.8-8.7-17-5.5  c-5.9,3-8.4,10-5.9,16.1C11.3,59,17.6,57.4,24.4,54.6z" fill="#72064D"/>
  <path d="M18.2,62.2C12.5,66,7.7,67.7,5.8,66.1C5.9,66.6,6,67,6.3,67.3c2.2,2.5,10.8-1.4,19.3-8.7c5-4.3,8.8-8.8,10.7-12.4  c-2,2.9-5.1,6.2-8.8,9.4C24.3,58.3,21.1,60.6,18.2,62.2z" fill="#ce2672"/>
  <path d="M52.7,32.1c-0.4-0.4-3.2-0.1-4.8,1.2c-0.6,0.5-1.6,1.4-2.6,2.4c-2.9,0.6-6.6,1.4-8,2c-1.8,0.8,2.5,0.9,5,1.1  c-1.7,1.8-3.5,3.7-4,4.4c-1.5,0.2-2.7,0.6-3.6,1c-1.2,0.5,1.2,0.4,2.5,0.5l0.1-0.1c-0.1,0.1-0.2,0.3-0.2,0.4  c-0.1,0.4,0.3,0.1,0.8-0.2c0,0.8-0.1,1.6,0.3,1c0.4-0.5,0.9-1,1.4-2c0.9-0.7,2.9-2.2,4.7-3.6c-0.3,1.5-0.6,3.3,0.3,2.4  c0.9-1,1.9-3.3,2.4-4.5c0.7-0.6,1.3-1.1,1.9-1.5C51.6,34.6,53.1,32.6,52.7,32.1z" fill="#ce2672"/>
  <path d="M25.5,53.4c-10.2,6-19.8,8.3-21.6,5.3c-0.7-1.2,0-3.2,1.8-5.4c-3.6,3.5-5.3,6.5-4.4,8.3c1.8,3,11.5,0.6,21.6-5.3  c6-3.5,10.8-7.5,13.4-10.8C33.6,48,29.9,50.8,25.5,53.4z" fill="#ce2672"/>
  <path d="M26.8,46c1.3,2.9-2,7.2-7.4,9.5c-5.3,2.4-10.7,2-12-0.9c-1.3-2.9,2-7.2,7.4-9.5C20.1,42.8,25.5,43.2,26.8,46z" fill="#72064D"/>
</svg>